<svg width="64" height="64" viewBox="0 0 64 64" fill="none" xmlns="http://www.w3.org/2000/svg">
<g id="Frame">
<path id="Vector" d="M52 58.6666C53.0609 58.6666 54.0783 58.2452 54.8285 57.4951C55.5786 56.7449 56 55.7275 56 54.6666C56 53.6058 55.5786 52.5883 54.8285 51.8382C54.0783 51.0881 53.0609 50.6666 52 50.6666C50.9392 50.6666 49.9218 51.0881 49.1716 51.8382C48.4215 52.5883 48 53.6058 48 54.6666C48 55.7275 48.4215 56.7449 49.1716 57.4951C49.9218 58.2452 50.9392 58.6666 52 58.6666ZM25.3334 58.6666C26.3942 58.6666 27.4117 58.2452 28.1618 57.4951C28.9119 56.7449 29.3334 55.7275 29.3334 54.6666C29.3334 53.6058 28.9119 52.5883 28.1618 51.8382C27.4117 51.0881 26.3942 50.6666 25.3334 50.6666C24.2725 50.6666 23.2551 51.0881 22.5049 51.8382C21.7548 52.5883 21.3334 53.6058 21.3334 54.6666C21.3334 55.7275 21.7548 56.7449 22.5049 57.4951C23.2551 58.2452 24.2725 58.6666 25.3334 58.6666Z" fill="#EAE4D5" stroke="#EAE4D5" stroke-width="4" stroke-linecap="round" stroke-linejoin="round"/>
<path id="Vector_2" d="M13.3334 10.6667H58.6667L53.3334 40M13.3334 10.6667L18.6667 40H53.3334M13.3334 10.6667C12.888 8.88804 10.6667 5.33337 5.33337 5.33337M53.3334 40H13.9467C9.18937 40 6.66671 42.0827 6.66671 45.3334C6.66671 48.584 9.18937 50.6667 13.9467 50.6667H52" stroke="#EAE4D5" stroke-width="4" stroke-linecap="round" stroke-linejoin="round"/>
</g>
</svg>
